<svg xmlns="http://www.w3.org/2000/svg" fill="none" viewBox="0 0 260 260">
  <g fill="#FFC131" clip-path="url(#a)">
    <path d="M103.07 87.79c-6.67 0-12.16-5.44-11.2-12.03a84.28 84.28 0 1 1 95.45 95.45c-6.6.95-12.03-4.54-12.03-11.2v-.92c0-6.67 5.46-11.95 11.98-13.3a59.21 59.21 0 0 0 29.9-99.88 59.23 59.23 0 0 0-99.89 29.89c-1.35 6.53-6.63 11.99-13.3 11.99h-.9Z"/>
    <path d="M175.43 65.71a22.07 22.07 0 1 0 0 44.15 22.07 22.07 0 0 0 0-44.15Z"/>
  </g>
  <path fill="#fff" d="M158.66 205.84s-.24-1.51-.39-1.5l-27.43 2.64a4.45 4.45 0 0 0-4.03 4.13l-.75 10.78-21.22 1.5-1.44-9.76a4.5 4.5 0 0 0-4.43-3.8H70.03a4.5 4.5 0 0 0-4.43 3.8l-1.44 9.77-21.22-1.51-.75-10.78a4.45 4.45 0 0 0-4.03-4.13l-27.45-2.64c-.14-.01-.24 1.5-.38 1.5l-.04 5.92 23.24 3.74.76 10.87a4.49 4.49 0 0 0 4.14 4.14l29.23 2.08.32.01c2.2 0 4.1-1.64 4.42-3.81l1.49-10.05h21.23l1.48 10.05a4.5 4.5 0 0 0 4.74 3.8l29.23-2.08a4.49 4.49 0 0 0 4.14-4.14l.76-10.87 23.23-3.76-.04-5.9Z"/>
  <path fill="#24C8DB" d="M10.33 161.18v44.66h.24l27.44 2.65a2.95 2.95 0 0 1 2.66 2.73l.85 12.08 23.93 1.7 1.65-11.15a2.95 2.95 0 0 1 2.93-2.52h28.94c1.47 0 2.71 1.08 2.93 2.52l1.65 11.16 23.93-1.7.85-12.1a2.95 2.95 0 0 1 2.66-2.72l27.43-2.64.24-.01v-3.57h.01v-41.09c3.87-4.85 7.53-10.2 10.33-14.7-4.28-7.28-9.53-13.78-15.14-19.8a148.23 148.23 0 0 0-15.03 8.72c-2.4-2.37-5.08-4.31-7.73-6.34-2.6-2.08-5.52-3.6-8.3-5.38.83-6.14 1.24-12.18 1.4-18.49-7.16-3.6-14.79-5.98-22.51-7.69a159.65 159.65 0 0 0-8.36 16.25 57.28 57.28 0 0 0-8.77-.7v-.01h-.12c-2.93.04-5.85.22-8.77.7a158.49 158.49 0 0 0-8.36-16.24c-7.72 1.71-15.36 4.1-22.52 7.7.17 6.3.58 12.34 1.4 18.48-2.77 1.78-5.7 3.3-8.3 5.38-2.63 2.03-5.33 3.97-7.72 6.34a147.97 147.97 0 0 0-15.03-8.73C9.54 132.7 4.3 139.2 0 146.47a168.96 168.96 0 0 0 10.33 14.71Z"/>
  <path fill="#24C8DB" d="m134.05 214.12-.85 12.14a2.95 2.95 0 0 1-2.74 2.74l-29.23 2.08h-.21a2.95 2.95 0 0 1-2.92-2.51l-1.68-11.34H72.58l-1.68 11.34a2.95 2.95 0 0 1-3.13 2.51L38.54 229a2.95 2.95 0 0 1-2.74-2.74l-.85-12.14-24.67-2.38c.01 2.65.05 5.55.05 6.12 0 26 33.05 38.5 74.12 38.64h.1c41.07-.14 74.11-12.64 74.11-38.64 0-.58.04-3.47.05-6.12l-24.66 2.38Z"/>
  <path fill="#fff" d="M62.14 179.31c0 9.12-7.4 16.5-16.54 16.5a16.52 16.52 0 0 1-16.53-16.5c0-9.1 7.4-16.49 16.53-16.49 9.14 0 16.54 7.38 16.54 16.49Z"/>
  <path fill="#414042" d="M58.16 180.29c0 6.04-4.91 10.94-10.98 10.94-6.06 0-10.97-4.9-10.97-10.94a10.96 10.96 0 0 1 21.95 0Z"/>
  <path fill="#fff" d="M84.5 197.31c-2.94 0-5.32-2.16-5.32-4.83V177.3c0-2.67 2.38-4.83 5.32-4.83 2.94 0 5.33 2.16 5.33 4.83v15.18c0 2.67-2.4 4.83-5.33 4.83ZM106.86 179.31c0 9.12 7.4 16.5 16.54 16.5 9.13 0 16.53-7.38 16.53-16.5 0-9.1-7.4-16.49-16.53-16.49a16.51 16.51 0 0 0-16.54 16.49Z"/>
  <path fill="#414042" d="M110.84 180.29c0 6.04 4.91 10.94 10.97 10.94a10.96 10.96 0 1 0 0-21.9c-6.06 0-10.97 4.91-10.97 10.96Z"/>
  <defs>
    <clipPath id="a">
      <path fill="#fff" d="M91 3.5h169v169H91z"/>
    </clipPath>
  </defs>
</svg>